<?xml version="1.0" standalone="no"?>
<!DOCTYPE svg PUBLIC "-//W3C//DTD SVG 20010904//EN"
 "http://www.w3.org/TR/2001/REC-SVG-20010904/DTD/svg10.dtd">
<svg version="1.0" xmlns="http://www.w3.org/2000/svg"
 width="200.000000pt" height="200.000000pt" viewBox="0 0 200.000000 200.000000"
 preserveAspectRatio="xMidYMid meet">
<metadata>
Created by potrace 1.11, written by Peter Selinger 2001-2013
</metadata>
<g transform="translate(0.000000,200.000000) scale(0.100000,-0.100000)"
fill="#000000" stroke="none">
<path d="M375 1330 c3 -5 11 -10 16 -10 6 0 7 5 4 10 -3 6 -11 10 -16 10 -6 0
-7 -4 -4 -10z"/>
<path d="M441 1311 c-7 -5 -22 -6 -32 -4 -13 4 -19 0 -19 -10 0 -24 21 -32 35
-14 6 9 23 21 36 26 13 5 17 10 9 10 -8 0 -21 -3 -29 -8z"/>
<path d="M494 1276 c6 -25 5 -26 -21 -22 -15 2 -43 5 -61 5 -18 1 -31 5 -28
10 12 19 -29 22 -45 3 -21 -26 -110 -57 -119 -42 -5 8 -13 6 -25 -6 -16 -16
-16 -19 -3 -28 13 -8 12 -15 -9 -56 -13 -26 -28 -72 -32 -102 -4 -30 -18 -72
-31 -93 -23 -37 -23 -38 -4 -52 20 -14 20 -17 29 -96 2 -27 7 -52 10 -58 4 -5
31 -9 61 -9 30 0 55 -3 55 -7 1 -5 3 -18 4 -29 1 -12 5 -25 8 -30 6 -11 272
-12 282 -2 4 3 2 16 -4 27 -29 52 -16 145 26 195 55 65 72 149 47 227 -15 48
-24 59 -93 122 -23 21 -39 42 -36 47 3 5 0 12 -6 16 -9 5 -10 -1 -5 -20z"/>
<path d="M226 1273 c-11 -11 -6 -23 9 -23 8 0 15 4 15 9 0 13 -16 22 -24 14z"/>
<path d="M557 1244 c-8 -8 1 -24 14 -24 5 0 9 7 9 15 0 15 -12 20 -23 9z"/>
<path d="M135 1220 c-8 -13 9 -20 24 -11 10 6 9 10 -3 14 -8 3 -18 2 -21 -3z"/>
<path d="M740 998 c-10 -4 -26 -18 -35 -32 -9 -14 -29 -27 -43 -29 -25 -4 -24
-4 5 -6 17 0 35 -5 38 -11 18 -30 88 3 136 65 l19 23 -51 -2 c-27 0 -59 -4
-69 -8z"/>
<path d="M666 788 c0 -46 5 -73 12 -76 8 -2 12 12 12 47 0 28 3 51 8 51 22 -1
34 -20 30 -55 -2 -24 2 -40 10 -43 9 -3 12 16 12 72 0 59 -3 76 -14 76 -9 0
-12 -7 -9 -20 4 -15 0 -20 -16 -20 -14 0 -21 6 -21 20 0 11 -6 20 -12 20 -9 0
-13 -21 -12 -72z"/>
<path d="M780 786 l0 -75 28 3 c15 2 30 4 35 5 4 0 7 6 7 11 0 7 -7 7 -20 0
-24 -13 -30 -2 -27 45 2 23 6 29 20 27 9 -2 17 2 17 8 0 6 -4 9 -8 6 -4 -2
-14 -1 -22 4 -12 7 -12 12 -3 21 9 9 16 9 28 -1 12 -10 15 -10 15 4 0 12 -9
16 -35 16 l-35 0 0 -74z"/>
<path d="M873 785 c0 -41 4 -75 8 -75 5 0 9 24 9 53 l1 52 24 -47 c38 -71 45
-69 45 16 0 50 -4 76 -11 76 -8 0 -10 -12 -6 -35 8 -50 -11 -54 -30 -6 -25 64
-39 52 -40 -34z"/>
<path d="M992 848 c-15 -15 -15 -59 -1 -91 11 -24 56 -53 67 -43 3 3 -3 8 -12
12 -18 7 -43 52 -40 72 1 6 2 21 3 32 1 25 26 26 40 3 9 -16 10 -16 11 5 0 18
-6 22 -28 22 -15 0 -33 -5 -40 -12z"/>
<path d="M1084 785 c0 -49 3 -74 10 -72 6 2 11 23 13 46 2 49 4 54 25 46 11
-5 15 -18 12 -51 -2 -31 1 -44 9 -41 7 2 13 31 15 75 2 58 -1 72 -12 72 -9 0
-13 -7 -11 -20 3 -14 -2 -20 -16 -20 -12 0 -19 7 -19 20 0 11 -6 20 -13 20 -9
0 -13 -21 -13 -75z"/>
<path d="M1266 844 c-26 -25 -20 -72 13 -105 16 -16 35 -29 43 -29 8 0 4 8 -9
18 -30 24 -45 66 -33 97 11 28 20 31 38 13 13 -13 27 -5 17 11 -9 16 -51 13
-69 -5z"/>
<path d="M1376 833 c-22 -30 -36 -131 -17 -119 7 5 10 20 7 37 -5 34 10 47 31
27 12 -13 19 -31 22 -60 1 -5 6 -8 12 -8 7 0 8 17 3 53 -4 28 -8 62 -8 75 -1
30 -26 28 -50 -5z m23 -32 c-15 -5 -22 6 -14 19 6 9 10 9 16 -1 5 -8 4 -15 -2
-18z"/>
<path d="M1462 785 c1 -50 5 -74 12 -72 6 2 11 22 11 45 -1 32 3 42 16 42 9 0
23 8 32 18 22 24 5 42 -40 42 l-33 0 2 -75z m54 54 c3 -6 1 -16 -5 -22 -9 -9
-14 -8 -21 3 -9 15 -4 30 10 30 5 0 12 -5 16 -11z"/>
<path d="M1565 787 c-1 -54 3 -74 12 -74 9 0 13 20 13 74 0 52 -4 73 -12 73
-9 0 -13 -22 -13 -73z"/>
<path d="M1617 853 c-4 -3 -7 -13 -7 -22 0 -12 3 -11 13 3 19 25 25 7 22 -66
-2 -46 1 -56 14 -55 13 1 15 12 13 69 -2 41 0 68 6 68 6 0 12 -6 15 -12 2 -7
8 -10 12 -6 4 4 4 11 0 17 -7 12 -78 15 -88 4z"/>
<path d="M1740 828 c-11 -18 -21 -45 -21 -60 -1 -16 -2 -33 -3 -40 -1 -6 4
-13 11 -15 8 -3 10 6 6 30 -3 21 -1 37 6 42 17 10 41 -14 41 -41 0 -20 16 -41
25 -32 2 1 -2 36 -8 76 -13 81 -26 90 -57 40z m30 -13 c0 -8 -4 -15 -10 -15
-5 0 -10 7 -10 15 0 8 5 15 10 15 6 0 10 -7 10 -15z"/>
<path d="M1830 787 l0 -75 32 2 c17 1 34 8 36 15 3 10 0 10 -17 2 -24 -13 -24
-14 -25 63 -1 38 -6 61 -14 64 -9 3 -12 -16 -12 -71z"/>
</g>
</svg>
